<svg
   xmlns="http://www.w3.org/2000/svg"
   class="hamster-wheel"
   version="1.1"
   viewBox="0 0 50 50">
	<style>
		.hamster-wheel {
		fill: white;
		}

		#front-paw {
		transform-origin: 30px 27px;
		transform: rotate(-45deg);
		animation: run-front-paw 0.5s infinite normal;
		fill: white;
		}

		#middle-paw {
		transform-origin: 29px 33px;
		transform: rotate(-20deg);
		animation: run-middle-paw 0.5s infinite normal;
		fill: white;
		}

		#back-paw {
		transform-origin: 14.5px 31px;
		transform: rotate(45deg);
		animation: run-back-paw 0.5s infinite normal;
		fill: white;
		}

		@keyframes run-front-paw {
		50% { transform: rotate(20deg); }
		}

		@keyframes run-middle-paw {
		50% { transform: rotate(40deg); }
		}

		@keyframes run-back-paw {
		50% { transform: rotate(-50deg); }
		}
	</style>
	<path
     class="original"
     style="display:none"
     d="M 25,3 C 14.523,3 6,11.523 6,22 c 0,3.771157 1.1255675,7.264865 3.03125,10.21875 0.012716,0.01971 0.018463,0.04284 0.03125,0.0625 -1.621e-4,0.01042 -1.621e-4,0.02083 0,0.03125 0.065876,0.186717 0.1854685,0.349798 0.34375,0.46875 1.175034,1.68681 2.603857,3.176479 4.25,4.40625 l -5.5,8.25 C 7.7002362,46.107802 8.1894036,47.013668 9,47 h 32 c 1.352323,0.01913 1.352323,-2.019125 0,-2 H 10.875 l 4.4375,-6.6875 1.125,-1.65625 9.40625,-14.09375 C 26.409763,21.801345 25.697183,20.753432 24.78125,21 c -0.257958,0.05752 -0.482659,0.214812 -0.625,0.4375 L 22.6875,23.625 C 21.67906,23.268298 20.523756,23 19,23 17.561247,23 16.21241,23.335115 15.15625,24 15.14583,23.999838 15.13542,23.999838 15.125,24 13.988032,23.864863 12.8125,22.4375 12.8125,22.4375 12.590337,22.094769 12.182087,21.921572 11.78125,22 c -0.702216,0.155773 -1.015306,0.979694 -0.59375,1.5625 0,0 0.860685,1.365835 2.40625,2.0625 C 13.216118,26.293304 12.992775,27.078535 13,28 c 0.007,0.891241 0.190699,1.713522 0.5,2.46875 C 12.940363,30.718415 11.971909,31.034119 10.59375,31 8.951648,28.390419 8,25.306489 8,22 8,12.626 15.626,5 25,5 c 9.374,0 17,7.626 17,17 0,3.82055 -1.270658,7.345632 -3.40625,10.1875 C 38.58356,32.17686 38.57314,32.16644 38.5625,32.15625 38.50345,32.11854 38.440603,32.08711 38.375,32.0625 38.235636,32.00936 38.086167,31.98801 37.9375,32 c -0.283136,0.02052 -0.534151,0.01086 -0.78125,0 -0.247099,-0.01086 -0.476513,-0.02842 -0.6875,-0.0625 -0.421974,-0.06816 -0.785419,-0.169106 -1.0625,-0.28125 C 35.305949,31.61566 35.265287,31.59949 35.1875,31.5625 37.265642,29.446666 38.785987,26.395036 39,22.0625 39.028,21.4855 38.578,21.002 38,21 c -1.795,-0.007 -4.0115,-0.084 -5.5625,0.875 -0.318,0.197 -0.691,0.17975 -1,-0.03125 -0.999,-0.68 -2.841,-1.3635 -3.25,-0.3125 -0.619,1.593 0.28175,3.90575 1.84375,4.46875 H 28.9375 c -0.978,0 -1.80875,-0.258 -2.59375,-0.625 l -6.6875,10.03125 C 20.95425,35.78925 22.357,36 23.75,36 c 1.591008,0 3.631324,-0.261966 5.71875,-0.96875 0.443209,0.650667 1.306179,1.636779 2.71875,2.34375 C 30.00218,38.399402 27.56882,39 25,39 22.589,39 20.29775,38.50275 18.21875,37.59375 L 17.09375,39.25 C 19.50275,40.357 22.179,41 25,41 35.477,41 44,32.477 44,22 44,11.523 35.477,3 25,3 Z m 9.03125,20 c 0.552,0 1,0.448 1,1 0,0.552 -0.448,1 -1,1 -0.552,0 -1,-0.448 -1,-1 0,-0.552 0.448,-1 1,-1 z m -19.5,9.21875 c 0.428738,0.527122 0.93363,0.983547 1.5,1.40625 L 14.75,35.53125 c -1.016697,-0.77089 -1.929482,-1.650117 -2.75,-2.625 1.14364,-0.152308 1.98263,-0.437785 2.53125,-0.6875 z m 19.0625,0.71875 c 0.05312,0.03741 0.04387,0.04252 0.125,0.09375 0.226819,0.14409 0.555698,0.314221 0.9375,0.46875 0.199334,0.08068 0.413715,0.148473 0.65625,0.21875 0.245465,0.07028 0.523987,0.138549 0.8125,0.1875 0.274896,0.04728 0.561889,0.07639 0.875,0.09375 -0.779622,0.779622 -1.613241,1.507637 -2.53125,2.125 -0.06893,-0.03984 -0.142363,-0.07131 -0.21875,-0.09375 -1.615534,-0.395705 -2.499372,-1.180602 -2.9375,-1.75 z" />

	<path
     class="static"
     style="display:inline;"
     d="M 33.59375,32.9375 c -0.519282,0.342505 -1.669904,1.040308 -2.28125,1.34375 -0.903407,0.448406 -1.397557,0.596084 -1.84375,0.75 C 27.385384,35.749913 25.341008,36 23.75,36 22.357,36 20.95425,35.78925 19.65625,35.40625 L 26.34375,25.375 C 27.12875,25.742 27.9595,26 28.9375,26 h 1.09375 c -1.562,-0.563 -2.46275,-2.87575 -1.84375,-4.46875 0.409,-1.051 2.251,-0.3675 3.25,0.3125 0.309,0.211 0.682,0.22825 1,0.03125 C 33.9885,20.916 36.205,20.993 38,21 c 0.578,0.002 1.028,0.4855 1,1.0625 -0.214013,4.332536 -1.794623,7.456086 -3.8125,9.5 -0.731041,0.740473 -0.992188,0.96875 -1.59375,1.375 z M 33.03125,24 c 0,0.552 0.448,1 1,1 0.552,0 1,-0.448 1,-1 0,-0.552 -0.448,-1 -1,-1 -0.552,0 -1,0.448 -1,1 z M 12,32.90625 c 0.81859,0.976502 1.733303,1.85411 2.75,2.625 L 16.03125,33.625 c -0.56637,-0.422703 -1.063552,-0.885494 -1.5,-1.40625 C 14.229485,31.858693 13.851581,31.253383 13.5,30.46875 13.166285,29.723988 13.007,28.891241 13,28 12.992775,27.078535 13.216118,26.293304 13.59375,25.625 12.048185,24.928335 11.1875,23.5625 11.1875,23.5625 10.765944,22.979694 11.079034,22.155773 11.78125,22 c 0.400837,-0.07843 0.809087,0.09477 1.03125,0.4375 0,0 1.175532,1.427363 2.3125,1.5625 0.01042,-1.62e-4 0.02083,-1.62e-4 0.03125,0 1.05616,-0.664885 2.404997,-1 3.84375,-1 1.523756,0 2.67906,0.268298 3.6875,0.625 l 1.46875,-2.1875 c 0.142341,-0.222688 0.367042,-0.37998 0.625,-0.4375 0.915933,-0.246568 1.628513,0.801345 1.0625,1.5625 L 16.4375,36.65625 15.3125,38.3125 10.875,45 H 41 c 1.352323,-0.01913 1.352323,2.01913 0,2 H 9 C 8.1894036,47.013668 7.7002362,46.107802 8.15625,45.4375 l 5.5,-8.25 C 12.010107,35.957729 10.393459,34.423866 8.8534258,31.866462 7.1255675,29.264865 6,25.771157 6,22 6,11.523 14.523,3 25,3 c 10.477,0 19,8.523 19,19 0,10.477 -8.523,19 -19,19 -2.821,0 -5.49725,-0.643 -7.90625,-1.75 l 1.125,-1.65625 C 20.29775,38.50275 22.589048,38.984746 25,39 27.992984,39.01894 30.724116,38.078668 32.185644,37.37251 33.84227,36.653723 35.559861,35.505459 37,34 37.9375,33.09375 38.09375,32.875 38.59375,32.1875 40.729342,29.345632 42,25.82055 42,22 42,12.626 34.374,5 25,5 15.626,5 8,12.626 8,22 c 0,3.306489 0.9795816,6.373049 2.59375,9 0.315758,0.513874 0.851891,1.244952 1.40625,1.90625 z" />

	<path
     id="front-paw"
     style="display:inline"
     d="M 34.516471,31.335781 c -0.658189,-0.146328 -1.124685,0.03321 -1.316264,0.263601 -0.151916,0.182692 -0.221321,0.695863 -0.0235,0.953126 0.147664,0.192032 0.210992,0.263162 0.417042,0.384992 0.05593,0.03307 0.04391,0.04261 0.125038,0.09384 0.226819,0.14409 0.555698,0.314221 0.9375,0.46875 0.199334,0.08068 0.413715,0.148473 0.65625,0.21875 0.245465,0.07028 0.523535,0.141295 0.8125,0.1875 0.527172,0.08429 0.754846,0.0915 0.87504,0.0937 0.539335,0.0099 1.242793,-0.01343 1.495249,-0.214626 0.94887,-0.756211 0.234892,-1.483806 0.09842,-1.597914 -0.03444,-0.0288 -0.04495,-0.05772 -0.21875,-0.125003 -0.139092,-0.05385 -0.288833,-0.07449 -0.4375,-0.0625 -0.283136,0.02052 -0.534151,0.01086 -0.78125,0 -0.247099,-0.01086 -0.476513,-0.02842 -0.6875,-0.0625 -0.421974,-0.06816 -0.785419,-0.169106 -1.0625,-0.28125 -0.100301,-0.04059 -0.140963,-0.05676 -0.21875,-0.09375 -0.138268,-0.06658 -0.486432,-0.185676 -0.671034,-0.226717 z" />

	<path
     d="M 29.474609,33.53125 c -0.190851,0.164571 -0.333874,0.489847 -0.318362,0.726562 0.01551,0.236715 0.08985,0.446418 0.312492,0.773397 0.428455,0.629226 1.299528,1.650227 2.71875,2.34375 0.392913,0.192003 1.181179,0.374182 1.564273,0.359947 0.339707,-0.01262 0.805888,-0.157074 0.974629,-0.330568 0.147144,-0.151288 0.286442,-0.379192 0.222794,-0.696364 -0.06365,-0.317172 -0.411257,-0.547438 -0.480435,-0.582974 -0.06918,-0.03554 -0.142334,-0.07138 -0.218753,-0.09375 -1.615534,-0.395705 -2.526037,-1.20792 -2.9375,-1.75 -0.316955,-0.417571 -0.349418,-0.602349 -0.769519,-0.785161 -0.420101,-0.182812 -0.877518,-0.129413 -1.068369,0.03516 z"
     style="display:inline"
     id="middle-paw" />

	<path
     d="M 14.550781,30.128903 c -0.404726,0.02425 -0.664243,0.147148 -1.050783,0.339853 -0.734753,0.346067 -1.841136,0.566493 -2.90625,0.53125 -0.275537,-0.0091 -0.575351,0.0717 -0.6952875,0.244072 -0.2270693,0.326344 -0.304465,0.64345 -0.074223,0.998142 0.115121,0.177347 0.3968135,0.39136 0.6949095,0.505785 0.298096,0.114426 0.615718,0.237335 1.480832,0.15826 0.891388,-0.08148 2.022142,-0.446741 2.53125,-0.6875 0.814013,-0.385345 1.048734,-0.959243 0.900441,-1.496101 -0.08674,-0.31403 -0.476163,-0.61804 -0.880889,-0.593791 z"
     style="display:inline"
     id="back-paw" />
</svg>
